<svg width="114" height="103" viewBox="0 0 114 103" fill="none" xmlns="http://www.w3.org/2000/svg">
<path d="M56.9077 102.75C25.6767 102.718 0.367549 79.7913 0.333252 51.4997C2.56085 52.0697 4.86401 52.3611 7.17876 52.3658C14.8361 52.4167 22.0303 49.0489 26.4141 43.3613C30.3333 38.2342 31.1614 31.6709 28.6205 25.8749C30.2452 26.1374 31.8921 26.2711 33.5424 26.2746C40.8794 26.3242 47.843 23.3483 52.4666 18.1874C56.9911 13.179 58.7601 6.58039 57.2754 0.25C88.5206 0.34199 113.768 23.3618 113.666 51.6663C113.564 79.9707 88.1529 102.841 56.9077 102.75ZM61.2243 85.1606C62.0946 85.4995 63.0322 85.6739 63.9795 85.673C66.8385 85.6706 69.4152 84.1101 70.5104 81.7178C71.6056 79.3254 71.0043 76.571 68.9863 74.7364C67.6563 73.5366 65.8564 72.8623 63.9795 72.8606C60.6221 72.8676 57.7329 75.0122 57.0653 77.9928C56.3976 80.9735 58.1355 83.9686 61.2243 85.1606ZM28.1679 76.484C29.3015 76.9086 30.5166 77.1264 31.7434 77.1246C35.5709 77.1237 39.0183 75.0273 40.4687 71.8185C41.919 68.6098 41.0847 64.9252 38.3569 62.4928C36.5937 60.9197 34.2182 60.0379 31.7434 60.0379C26.5383 60.0436 22.3212 63.8661 22.3181 68.5813C22.319 72.0088 24.5758 75.1056 28.0547 76.4532H28.083H28.1452L28.1679 76.484ZM81.5232 63.6357C85.3259 65.0823 89.7251 64.1212 92.3819 61.2635C95.0387 58.4057 95.3358 54.3151 93.1153 51.1666C92.4198 50.1859 91.5113 49.3437 90.445 48.6912C87.5164 46.8997 83.728 46.7417 80.63 48.2818C77.532 49.8219 75.6444 52.8016 75.7396 56.0017C75.8348 59.2017 77.8969 62.085 81.0819 63.4717H81.014L81.1838 63.5383L81.2969 63.5793H81.263C81.3437 63.6028 81.423 63.6302 81.5006 63.6613L81.5232 63.6357ZM56.9077 42.9564C54.6512 42.953 52.7079 44.3974 52.2709 46.4027C51.8338 48.4081 53.0253 50.4131 55.1139 51.1868C57.2025 51.9605 59.6035 51.2863 60.8428 49.5782C62.0821 47.87 61.8128 45.606 60.2003 44.1761C59.7799 43.8011 59.2846 43.5019 58.7407 43.2946L58.6389 43.2536L58.4861 43.2024C57.9795 43.0386 57.4455 42.9554 56.9077 42.9564ZM78.1231 21.6057C74.5031 21.5976 71.4647 24.0747 71.0936 27.3368C70.7224 30.5988 73.1392 33.5852 76.6849 34.2461C80.2307 34.9071 83.7527 33.0276 84.8333 29.8978C85.914 26.768 84.2021 23.4055 80.8726 22.1183H80.816C79.9643 21.7887 79.0492 21.6145 78.1231 21.6057ZM14.4769 38.6873C11.8741 38.6873 9.76421 36.776 9.76421 34.4182C9.76421 32.0604 11.8741 30.1491 14.4769 30.1491C17.0796 30.1491 19.1895 32.0604 19.1895 34.4182C19.1864 36.7748 17.0783 38.6845 14.4769 38.6873ZM7.40506 25.8749C3.49941 25.8749 0.333252 23.0067 0.333252 19.4686C0.333252 15.9306 3.49941 13.0624 7.40506 13.0624C11.3107 13.0624 14.4769 15.9306 14.4769 19.4686C14.4706 23.0044 11.3081 25.8692 7.40506 25.8749ZM35.6923 17.3315C31.7866 17.3315 28.6205 14.4634 28.6205 10.9253C28.6205 7.38726 31.7866 4.5191 35.6923 4.5191C39.5979 4.5191 42.7641 7.38726 42.7641 10.9253C42.7641 14.4642 39.5988 17.3338 35.6923 17.3367V17.3315ZM19.1952 8.79333C16.5932 8.79333 14.4836 6.88303 14.4825 4.52593C14.4815 2.16884 16.5894 0.257012 19.1914 0.255125C21.7934 0.25324 23.9047 2.16201 23.9078 4.5191C23.9078 6.87769 21.7988 8.7905 19.1952 8.79333Z" fill="#E34D92"/>
</svg>
