<svg id="SvgjsSvg1016" width="288" height="288" xmlns="http://www.w3.org/2000/svg" version="1.1"
     xmlnsXlink="http://www.w3.org/1999/xlink" xmlnsSvgjs="http://svgjs.com/svgjs">
    <defs id="SvgjsDefs1017"></defs>
    <g id="SvgjsG1018">
        <svg xmlns="http://www.w3.org/2000/svg" enable-background="new 0 0 344.829 344.829"
             viewBox="0 0 344.829 344.829" width="288" height="288">
            <path d="M215.053,331.358c-24.107,0-47.862-2.333-70.605-6.935c-3.73-0.755-6.413-4.035-6.413-7.841v-80.509l-41.508-12.398
	c-3.389-1.012-5.711-4.129-5.711-7.666s2.322-6.653,5.711-7.666l116.237-34.718c1.492-0.446,3.086-0.446,4.578,0l116.062,34.665
	c0.688,0.188,1.338,0.465,1.938,0.818c2.406,1.412,3.95,4.016,3.95,6.9c0,0.072-0.001,0.145-0.003,0.216v41.478l4.925,11.846
	c1.696,4.08-0.235,8.762-4.315,10.458c-3.025,1.258-6.384,0.52-8.61-1.612c-2.225,2.132-5.584,2.87-8.609,1.611
	c-4.08-1.696-6.012-6.379-4.315-10.458l4.926-11.845V226.75l-105.947,31.645c-1.492,0.446-3.085,0.446-4.579,0l-58.729-17.542
	v69.118c19.741,3.577,40.234,5.388,61.019,5.388c20.785,0,41.278-1.811,61.02-5.388v-45.248c0-4.418,3.582-8,8-8s8,3.582,8,8v51.859
	c0,3.807-2.683,7.086-6.413,7.841C262.916,329.025,239.161,331.358,215.053,331.358z M148.525,222.508l66.527,19.871l88.285-26.37
	l-88.285-26.369l-88.284,26.369l21.359,6.38C148.262,222.426,148.395,222.465,148.525,222.508z M112.679,286.772
	c-0.79,0-1.593-0.118-2.388-0.366L5.614,253.704C2.274,252.66,0,249.567,0,246.068V21.471c0-2.545,1.211-4.938,3.261-6.445
	c2.05-1.507,4.692-1.95,7.125-1.191L147.16,56.566l134.524-42.028c2.431-0.759,5.075-0.316,7.125,1.191
	c2.05,1.507,3.261,3.9,3.261,6.445v142.842c0,4.418-3.582,8-8,8s-8-3.582-8-8V33.055L154.034,71.182v89.798c0,4.418-3.582,8-8,8
	s-8-3.582-8-8V70.478L16,32.352v207.834l99.062,30.948c4.217,1.318,6.567,5.805,5.25,10.022
	C119.243,284.579,116.085,286.772,112.679,286.772z M77.019,180.703c-0.79,0-1.594-0.118-2.388-0.366l-21.906-6.845
	c-4.218-1.317-6.568-5.805-5.25-10.021c1.317-4.216,5.804-6.569,10.021-5.25l21.906,6.845c4.218,1.317,6.568,5.804,5.25,10.021
	C83.583,178.51,80.426,180.703,77.019,180.703z M193.146,147.758c-3.407,0-6.564-2.193-7.634-5.616
	c-1.317-4.217,1.033-8.704,5.25-10.022l43.812-13.687c4.218-1.318,8.704,1.033,10.021,5.25s-1.033,8.704-5.25,10.022l-43.812,13.687
	C194.74,147.641,193.937,147.758,193.146,147.758z M98.926,147.758c-0.791,0-1.594-0.118-2.389-0.366l-43.812-13.687
	c-4.217-1.318-6.567-5.805-5.25-10.022c1.317-4.216,5.805-6.568,10.021-5.25l43.812,13.687c4.217,1.318,6.567,5.805,5.25,10.022
	C105.489,145.565,102.332,147.758,98.926,147.758z M193.146,110.412c-3.407,0-6.564-2.193-7.634-5.616
	c-1.317-4.217,1.033-8.704,5.25-10.022l43.812-13.688c4.218-1.318,8.704,1.033,10.021,5.25s-1.033,8.704-5.25,10.021l-43.812,13.688
	C194.74,110.294,193.937,110.412,193.146,110.412z M98.925,110.412c-0.79,0-1.594-0.118-2.388-0.366L52.726,96.357
	c-4.217-1.317-6.567-5.804-5.25-10.021s5.806-6.568,10.021-5.25l43.812,13.688c4.217,1.318,6.567,5.805,5.25,10.022
	C105.489,108.218,102.332,110.412,98.925,110.412z" fill="#7e254e" class="color000 svgShape"></path>
        </svg>
    </g>
</svg>