<svg id="SvgjsSvg1026" width="288" height="288" xmlns="http://www.w3.org/2000/svg" version="1.1" xmlnsXlink="http://www.w3.org/1999/xlink" xmlnsSvgjs="http://svgjs.com/svgjs"><defs id="SvgjsDefs1027"></defs><g id="SvgjsG1028"><svg xmlns="http://www.w3.org/2000/svg" enable-background="new 0 0 1000 1000" viewBox="0 0 1000 1000" width="288" height="288"><path d="M990,233.3v297.1c0,0-63.5,12.5-76.6,14.2c-13,1.6-54,14.9-83.7-13.7c-45.8-43.9-208.5-206-208.5-206s-28-27.6-73.1-3.8c-41.4,21.9-102.7,53.8-128.2,66.3c-9.1,6.3-20.2,10.1-32.1,10.1c-31.1,0-56.4-25.2-56.4-56.4c0-24.2,15.3-44.6,36.6-52.7c58.4-35.4,181.4-104.6,232.7-131.9c31.1-16.5,53.6-18,96.4,18.1c52.7,44.4,99.5,84.8,99.5,84.8s22.1,11.2,39.6,7.7C893.3,255.5,990,233.3,990,233.3z M342.4,736.6c7.9-20.3,5.2-43-9.9-58.5c-13.6-14-33.4-17.7-52.3-13.3c5.3-18.7,2.4-38.7-11.3-52.8c-13.6-13.9-33.4-17.6-52.3-13.3c5.2-18.7,2.3-38.7-11.3-52.8c-21.4-22-58.4-21-82.7,2.2c-24.2,23.2-39.7,65.3-18.1,90c21.6,24.6,46.3,9.7,65.2,5.3c-5.2,18.7-21,36.2-1.6,60.7c19.3,24.5,46.3,9.7,65.2,5.3c-5.3,18.7-20.3,37.9-1.7,60.6c18.8,22.8,49.6,10.7,69.9,4.3c-7.8,20.2-24.6,41.9-3.1,66.4c21.5,24.5,71.3,13.2,95.6-10.1c24.2-23.2,26.6-60,5.2-82C384.6,733.7,362.6,730.2,342.4,736.6z M786,582c-175.7-175.9-93.1-93.2-187.6-188c0,0-28.5-28.3-66-11.9c-26.2,11.5-60.1,27.3-85.6,39.3c-28,14.7-52.5,19.2-57.6,19.2c-54.1,0-98-43.9-98-98c0-35.2,18.6-65.7,46.4-83c39.1-27.1,128.9-75,128.9-75s-27.4-34.8-87.4-34.8S193.9,232,193.9,232s-35.5,22.8-86.2,2.2L10,200.2v339.9c0,0,27.8,8.1,52.9,18.3c5.7-16.1,14.8-31.1,27.5-43.4c41.6-39.7,110.4-40.1,148.3-1.1c11.4,11.8,19.3,26,23.4,41.6c15.3,4.7,29,13.1,40.1,24.5c11.4,11.7,19.3,25.9,23.4,41.5c15.3,4.7,29,13.1,40.1,24.5c12.6,12.9,20.9,28.6,24.8,45.6c15.9,4.6,30.3,13.2,41.9,25.1c22.7,23.4,30.8,55.1,25.9,85.7c0,0,0.1,0,0.1,0.1c0.4,0.4,14.1,15.8,22.7,24.4c16.8,16.8,44.1,16.8,60.9,0c16.7-16.8,16.8-44.2,0-61c-0.6-0.6-1.4-0.7-2-1.3c0.1-0.1,0.2-0.3,0.2-0.6c-56.5-56.6-59.4-60.7-53.9-66.3c5.6-5.6,13.9,6.8,77.2,70.1c0.4,0.5,1.3,0.7,2.1,1c1.2,1.6,1.7,3.5,3.1,4.9c16.8,16.8,44.1,16.8,60.8,0c16.8-16.8,16.8-44.2,0-61c-0.7-0.7-1.8-1.1-2.5-1.8c-1-1.2-1.7-2.4-2.9-3.6c-57.7-57.8-64.3-68.7-59.9-73.2c5-5,31.9,24.5,89.4,82c0.2,0,0.4-0.1,0.6-0.1c16.9,15.3,42.8,15.1,59.1-1.1c15.8-15.8,16.2-40.8,2.1-57.7c-0.3-0.9-0.2-2.1-0.8-2.7c-72.7-72.8-69.6-73.9-65.2-78.4c4.5-4.4,4.7-4.7,76,66.6h0.1c0.1,0.2,0.1,0.4,0.3,0.5c16.7,16.8,44.1,16.8,60.9,0c16.7-16.8,16.7-44.2,0-61C786.5,582.3,786.2,582.2,786,582z" fill="#7e254e" class="color000 svgShape"></path></svg></g></svg>