<svg width="128" height="116" viewBox="0 0 128 116" fill="none" xmlns="http://www.w3.org/2000/svg">
<path d="M0.25 115.75V13.0833C0.25 5.99568 6.59263 0.25 14.4167 0.25H113.583C121.407 0.25 127.75 5.99568 127.75 13.0833V77.25C127.75 84.3377 121.407 90.0833 113.583 90.0833H42.75C39.6838 90.0782 36.6995 90.9794 34.25 92.65L0.25 115.75ZM14.4167 13.0833V90.0833L29.5325 79.8167C31.9808 78.1439 34.9659 77.2425 38.0325 77.25H113.583V13.0833H14.4167ZM56.9167 68.0164L30.6588 44.2234L40.6746 35.1567L56.9167 49.8701L87.3254 22.3233L97.3412 31.3965L56.9167 68.01V68.0164Z" fill="#E34D92"/>
</svg>
