<svg width="132" height="117" viewBox="0 0 132 117" fill="none" xmlns="http://www.w3.org/2000/svg">
<path d="M99 39H93.5V29.25C93.5 15.795 81.18 4.875 66 4.875C50.82 4.875 38.5 15.795 38.5 29.25V39H33C26.95 39 22 43.3875 22 48.75V97.5C22 102.863 26.95 107.25 33 107.25H99C105.05 107.25 110 102.863 110 97.5V48.75C110 43.3875 105.05 39 99 39ZM66 82.875C59.95 82.875 55 78.4875 55 73.125C55 67.7625 59.95 63.375 66 63.375C72.05 63.375 77 67.7625 77 73.125C77 78.4875 72.05 82.875 66 82.875ZM49.5 39V29.25C49.5 21.1575 56.87 14.625 66 14.625C75.13 14.625 82.5 21.1575 82.5 29.25V39H49.5Z" fill="#AD2D68"/>
</svg>
